<?xml version="1.0" encoding="iso-8859-1"?>
<!-- Uploaded to: SVG Repo, www.svgrepo.com, Generator: SVG Repo Mixer Tools -->
<svg version="1.1" id="Layer_1" xmlns="http://www.w3.org/2000/svg" xmlns:xlink="http://www.w3.org/1999/xlink" 
	 viewBox="0 0 512 512" xml:space="preserve">
<rect x="60.348" y="74.457" transform="matrix(-0.6119 -0.791 0.791 -0.6119 89.6814 231.1195)" style="fill:#333E48;" width="82.398" height="38.197"/>
<path style="fill:#0071CE;" d="M503.585,118.884c2.569-12.876-6.074-23.411-19.204-23.411H122.796
	c-13.129,0-21.77,10.535-19.202,23.411l41.904,210.074c2.567,12.876,15.412,23.411,28.541,23.411h259.101
	c13.131,0,25.975-10.535,28.543-23.411L503.585,118.884z"/>
<polygon style="fill:#4BB6AA;" points="120.181,202.037 131.134,256.949 476.046,256.949 486.997,202.037 "/>
<circle style="fill:#333E48;" cx="224.812" cy="428.361" r="41.781"/>
<circle style="fill:#FFFFFF;" cx="224.812" cy="428.361" r="8.327"/>
<circle style="fill:#333E48;" cx="382.359" cy="428.361" r="41.781"/>
<circle style="fill:#FFFFFF;" cx="382.359" cy="428.361" r="8.327"/>
<path style="fill:#FF9E16;" d="M76.346,80.056H27.072c-10.547,0-19.098-8.552-19.098-19.098c0-10.549,8.551-19.098,19.098-19.098
	h49.275c10.547,0,19.098,8.55,19.098,19.098C95.444,71.504,86.893,80.056,76.346,80.056z"/>
<path style="fill:#1E252B;" d="M506.035,97.293c-5.105-6.225-12.998-9.795-21.653-9.795H131.104L97.758,44.393l-0.014,0.011
	c-4.956-6.392-12.702-10.518-21.399-10.518H27.072C12.144,33.887,0,46.031,0,60.958S12.144,88.03,27.072,88.03h35.991l35.368,45.72
	l38.922,195.128h-0.438c-17.972,0-32.595,14.621-32.595,32.595c0,17.974,14.622,32.595,32.595,32.595h51.913
	c-8.516,8.933-13.76,21.009-13.76,34.295c0,27.432,22.317,49.751,49.751,49.751c27.432,0,49.75-22.319,49.75-49.751
	c0-13.286-5.246-25.362-13.76-34.295h85.565c-8.516,8.933-13.76,21.009-13.76,34.295c0,27.432,22.319,49.751,49.752,49.751
	c27.432,0,49.749-22.319,49.749-49.751c0-13.286-5.246-25.362-13.759-34.295h22.51c4.405,0,7.974-3.57,7.974-7.974
	s-3.569-7.974-7.974-7.974h-303.95c-9.18,0-16.648-7.469-16.648-16.648c0-9.179,7.468-16.648,16.648-16.648h7.227
	c6.946,9.315,18.166,15.517,29.899,15.517h259.101c17.054,0,33.025-13.1,36.363-29.824l41.903-210.074
	C513.097,111.955,511.141,103.517,506.035,97.293z M382.363,394.56c18.638,0,33.802,15.165,33.802,33.804
	c0,18.639-15.164,33.804-33.802,33.804c-18.64,0-33.805-15.165-33.805-33.804C348.559,409.723,363.722,394.56,382.363,394.56z
	 M224.816,394.56c18.639,0,33.803,15.165,33.803,33.804c0,18.639-15.164,33.804-33.803,33.804s-33.804-15.165-33.804-33.804
	C191.013,409.723,206.177,394.56,224.816,394.56z M27.072,72.082c-6.134,0-11.125-4.989-11.125-11.124s4.99-11.125,11.125-11.125
	h49.275c6.134,0,11.125,4.99,11.125,11.125s-4.99,11.125-11.125,11.125H27.072V72.082z M101.145,97.292
	c-1.979,2.412-3.478,5.159-4.482,8.111L82.644,87.282c7.617-1.823,13.993-6.87,17.596-13.617l12.136,15.688
	C107.965,91.002,104.09,93.702,101.145,97.292z M495.765,117.324l-41.903,210.074c-1.838,9.214-11.328,16.998-20.723,16.998H174.039
	c-9.395,0-18.885-7.783-20.721-16.998l-41.904-210.073c-0.767-3.842-0.034-7.364,2.06-9.918c2.094-2.554,5.405-3.96,9.322-3.96
	h361.585c3.918,0,7.229,1.407,9.324,3.961C495.8,109.961,496.531,113.482,495.765,117.324z"/>
</svg>